<?xml version="1.0"?>
<svg xmlns="http://www.w3.org/2000/svg" height="512px" viewBox="-94 0 512 512" width="512px" class=""><g><path d="m161.640625 80.203125c-50.691406 0-91.933594 41.238281-91.933594 91.929687 0 50.691407 41.242188 91.933594 91.933594 91.933594s91.929687-41.242187 91.929687-91.933594c0-50.691406-41.238281-91.929687-91.929687-91.929687zm0 153.863281c-34.148437 0-61.933594-27.785156-61.933594-61.933594 0-34.148437 27.78125-61.933593 61.933594-61.933593 34.148437 0 61.929687 27.785156 61.929687 61.933593 0 34.148438-27.78125 61.933594-61.929687 61.933594zm0 0" data-original="#000000" class="active-path" data-old_color="#000000" fill="#3A5896"/><path d="m161.640625 0c-89.128906 0-161.640625 72.796875-161.640625 162.277344 0 36.078125 25.199219 104.902344 74.894531 204.558594 36.449219 73.082031 73.394531 137.039062 73.761719 137.675781 2.683594 4.636719 7.628906 7.488281 12.984375 7.488281 5.351563 0 10.300781-2.851562 12.980469-7.488281.371094-.636719 37.316406-64.59375 73.761718-137.675781 49.695313-99.65625 74.894532-168.480469 74.894532-204.558594.003906-89.480469-72.507813-162.277344-161.636719-162.277344zm0 466.648438c-46.042969-82.230469-131.640625-246.957032-131.640625-304.371094 0-72.9375 59.054688-132.277344 131.640625-132.277344s131.640625 59.339844 131.640625 132.277344c0 57.414062-85.597656 222.140625-131.640625 304.371094zm0 0" data-original="#000000" class="active-path" data-old_color="#000000" fill="#3A5896"/><path d="m194.21875 139.554688c-5.855469-5.859376-15.355469-5.859376-21.210938 0l-11.367187 11.367187-11.367187-11.367187c-5.859376-5.859376-15.355469-5.859376-21.214844 0-5.855469 5.855468-5.855469 15.351562 0 21.210937l11.367187 11.367187-11.367187 11.367188c-5.855469 5.859375-5.855469 15.355469 0 21.214844 2.929687 2.925781 6.769531 4.390625 10.605468 4.390625 3.839844 0 7.679688-1.464844 10.609376-4.390625l11.367187-11.367188 11.367187 11.367188c2.929688 2.925781 6.765626 4.390625 10.605469 4.390625 3.835938 0 7.675781-1.464844 10.605469-4.390625 5.859375-5.859375 5.859375-15.355469 0-21.214844l-11.367188-11.367188 11.367188-11.367187c5.859375-5.855469 5.859375-15.355469 0-21.210937zm0 0" data-original="#000000" class="active-path" data-old_color="#000000" fill="#3A5896"/></g> </svg>
